<?xml version="1.0" encoding="utf-8"?>
<!-- Generator: Adobe Illustrator 26.2.1, SVG Export Plug-In . SVG Version: 6.00 Build 0)  -->
<svg version="1.1" id="Layer_1" xmlns="http://www.w3.org/2000/svg" xmlns:xlink="http://www.w3.org/1999/xlink" x="0px" y="0px"
	 viewBox="0 0 300 300" style="enable-background:new 0 0 300 300;" xml:space="preserve">
<style type="text/css">
	.st0{fill:#FFFFFF;}
	.st1{fill:#EBEFF2;}
	.st2{fill:#F9DC79;}
	.st3{fill:#FBE7A1;}
	.st4{fill:#FFCE10;}
</style>
<g>
	<path class="st0" d="M153.92,278.44c-10.55,0-19.13-8.58-19.13-19.13V40.69c0-10.55,8.58-19.13,19.13-19.13h93.88
		c10.55,0,19.13,8.58,19.13,19.13v218.63c0,10.55-8.58,19.13-19.13,19.13H153.92z"/>
	<path d="M247.79,26.06c8.07,0,14.63,6.56,14.63,14.63v218.63c0,8.07-6.56,14.63-14.63,14.63h-93.88c-8.07,0-14.63-6.56-14.63-14.63
		V40.69c0-8.07,6.56-14.63,14.63-14.63H247.79 M247.79,17.06h-93.88c-13.05,0-23.63,10.58-23.63,23.63v218.63
		c0,13.05,10.58,23.63,23.63,23.63h93.88c13.05,0,23.63-10.58,23.63-23.63V40.69C271.42,27.64,260.84,17.06,247.79,17.06
		L247.79,17.06z"/>
</g>
<path d="M217.48,45.95h-33.25c-3.66,0-6.63-2.97-6.63-6.63v0c0-3.66,2.97-6.63,6.63-6.63h33.25c3.66,0,6.63,2.97,6.63,6.63v0
	C224.11,42.98,221.14,45.95,217.48,45.95z"/>
<path class="st1" d="M248.03,91.01h-18.67c-2.9,0-5.26-2.35-5.26-5.26V67.09c0-2.9,2.35-5.26,5.26-5.26h18.67
	c2.9,0,5.26,2.35,5.26,5.26v18.67C253.29,88.66,250.94,91.01,248.03,91.01z"/>
<path class="st2" d="M248.03,129.58h-18.67c-2.9,0-5.26-2.35-5.26-5.26v-18.67c0-2.9,2.35-5.26,5.26-5.26h18.67
	c2.9,0,5.26,2.35,5.26,5.26v18.67C253.29,127.23,250.94,129.58,248.03,129.58z"/>
<path class="st1" d="M210.19,168.15h-18.67c-2.9,0-5.26-2.35-5.26-5.26v-18.67c0-2.9,2.35-5.26,5.26-5.26h18.67
	c2.9,0,5.26,2.35,5.26,5.26v18.67C215.45,165.79,213.09,168.15,210.19,168.15z"/>
<path class="st2" d="M172.34,168.15h-18.67c-2.9,0-5.26-2.35-5.26-5.26v-18.67c0-2.9,2.35-5.26,5.26-5.26h18.67
	c2.9,0,5.26,2.35,5.26,5.26v18.67C177.6,165.79,175.24,168.15,172.34,168.15z"/>
<path class="st1" d="M243.32,265.01h-84.94c-5.51,0-9.97-4.46-9.97-9.97v-9.25c0-5.51,4.46-9.97,9.97-9.97h84.94
	c5.51,0,9.97,4.46,9.97,9.97v9.25C253.29,260.55,248.83,265.01,243.32,265.01z"/>
<path class="st3" d="M209.5,129.58h-54.42c-3.68,0-6.66-2.98-6.66-6.66V68.49c0-3.68,2.98-6.66,6.66-6.66h54.42
	c3.68,0,6.66,2.98,6.66,6.66v54.42C216.17,126.6,213.18,129.58,209.5,129.58z"/>
<rect x="15.52" y="136.47" class="st4" width="64.92" height="27.07"/>
<polygon class="st4" points="73.06,201.26 73.06,98.74 124.32,150 "/>
</svg>
